<svg width="42" height="44" viewBox="0 0 42 44" fill="none" xmlns="http://www.w3.org/2000/svg">
<path d="M21.2708 37.6667H4.41667V8.50002H0.25V37.6667C0.25 38.7718 0.688987 39.8316 1.47039 40.613C2.25179 41.3944 3.3116 41.8334 4.41667 41.8334H22.7708C22.0046 40.5552 21.4951 39.1399 21.2708 37.6667ZM33.5833 0.166687H12.75C11.6449 0.166687 10.5851 0.605674 9.80372 1.38708C9.02232 2.16848 8.58333 3.22828 8.58333 4.33335V29.3334C8.58333 30.4384 9.02232 31.4982 9.80372 32.2796C10.5851 33.061 11.6449 33.5 12.75 33.5H21.2708C21.4951 32.0268 22.0046 30.6115 22.7708 29.3334H12.75V4.33335H16.9167V16.8334L22.125 12.1459L27.3333 16.8334V4.33335H33.5833V23.0834C35.0024 23.0812 36.4114 23.3208 37.75 23.7917V4.33335C37.75 3.22828 37.311 2.16848 36.5296 1.38708C35.7482 0.605674 34.6884 0.166687 33.5833 0.166687ZM35.6667 27.25V33.5H41.9167V37.6667H35.6667V43.9167H31.5V37.6667H25.25V33.5H31.5V27.25H35.6667Z" fill="white"/>
</svg>
